<svg width="151" height="150" viewBox="0 0 151 150" fill="none" xmlns="http://www.w3.org/2000/svg">
<path d="M112.244 83.487L113.713 85.195C113.963 85.465 114.155 85.747 114.28 86.095C114.374 86.3645 114.491 86.6257 114.628 86.876C114.747 87.093 114.881 87.339 115.173 87.339C115.517 87.338 115.634 87.041 115.76 86.788C115.858 86.599 115.946 86.396 115.983 86.186C116.213 84.816 116.938 83.82 118.155 83.158C118.341 83.058 118.511 82.91 118.666 82.764C119.067 82.375 119.108 81.943 118.71 81.542C118.413 81.241 118.053 80.984 117.675 80.788C117.258 80.5773 116.911 80.2509 116.675 79.848L116.188 79.011C115.835 78.424 115.337 77.973 114.806 77.5C114.652 77.615 114.523 77.675 114.43 77.773C113.853 78.379 113.405 79.069 113.161 79.873C112.971 80.512 112.597 81.021 112.064 81.416L111.57 81.826C111.292 82.108 111.282 82.386 111.537 82.687L112.245 83.488L112.244 83.487Z" fill="#111111"/>
<path d="M113.641 82.975L114.412 83.872C114.544 84.014 114.644 84.162 114.71 84.344C114.759 84.4855 114.82 84.6226 114.893 84.754C114.955 84.868 115.026 84.997 115.179 84.997C115.36 84.997 115.421 84.84 115.487 84.708C115.538 84.609 115.585 84.502 115.604 84.392C115.725 83.673 116.105 83.15 116.744 82.802C116.842 82.749 116.931 82.672 117.012 82.595C117.223 82.391 117.244 82.164 117.035 81.953C116.879 81.795 116.69 81.66 116.491 81.557C116.268 81.439 116.094 81.282 115.966 81.064L115.71 80.625C115.525 80.317 115.263 80.08 114.984 79.832C114.903 79.893 114.835 79.924 114.786 79.975C114.483 80.293 114.248 80.655 114.12 81.077C114.02 81.412 113.824 81.68 113.544 81.887L113.285 82.102C113.139 82.25 113.134 82.396 113.268 82.554L113.641 82.975Z" fill="#1BDBDB"/>
<path d="M87.3535 64.5L58.3535 35L93.8535 61.5L91.8535 72.5L87.3535 64.5Z" fill="#1BDBDB"/>
<path d="M112.943 54.6674L55.4981 31.056C55.2238 30.9441 54.9091 31.0025 54.6945 31.2077C54.4803 31.4128 54.4069 31.7246 54.507 32.0038L71.4892 79.1607C71.5763 79.4025 71.7812 79.5833 72.0319 79.639C72.11 79.656 72.189 79.6607 72.2667 79.6531C72.4378 79.6366 72.6012 79.561 72.7264 79.4355L84.3458 67.7458L91.5034 72.6579C91.5342 72.6792 91.5693 72.6866 91.602 72.7027C91.7598 72.8101 91.9526 72.8623 92.1568 72.8209C92.4718 72.7606 92.7133 72.5077 92.7582 72.1908L94.3121 61.3367L112.862 56.0826C113.17 55.9955 113.389 55.7232 113.407 55.404C113.425 55.0844 113.239 54.7889 112.943 54.6674ZM72.4988 77.537L56.8441 34.0654L86.5368 63.4139L72.4988 77.537ZM87.0815 64.9936L89.7431 69.6313L85.4205 66.6647L87.0815 64.9936ZM91.5825 69.8222L87.8933 63.3944C87.8477 63.3152 87.7798 63.2559 87.7109 63.1992C87.6913 63.1684 87.6769 63.1351 87.6499 63.1084L60.9008 36.6684L92.8746 60.797L91.5825 69.8222ZM93.4914 60.0103L59.3955 34.2797L110.368 55.2303L93.4914 60.0103Z" fill="black"/>
<path d="M30.9345 30.8648L28.0117 28.0982L32.5778 26.8597L34.6722 23.2179L36.6335 26.9959L41.3654 27.735L38.0045 31.1022L38.4247 35.873L34.3231 33.6471L30.0814 35.5929L30.9365 30.8649L30.9345 30.8648Z" fill="#1BDBDB"/>
<path d="M113.402 17.55C113.429 16.7491 112.786 16.0775 111.965 16.05C111.144 16.0224 110.456 16.6493 110.43 17.4502C110.403 18.251 111.046 18.9226 111.867 18.9502C112.688 18.9777 113.376 18.3508 113.402 17.55Z" fill="#1BDBDB"/>
<path d="M112.639 19.5456C112.979 19.501 113.233 19.2784 113.326 19.0844C113.699 18.8808 113.76 18.6878 113.884 18.3787C113.964 18.1343 114.088 17.7673 114.057 17.47C113.912 17.183 114.027 16.7406 113.912 16.5226C113.756 16.1722 113.61 16.0852 113.436 15.8103C113.223 15.655 112.919 15.5248 112.648 15.3976C112.28 15.3072 112.094 15.2419 111.825 15.0778C111.59 15.1109 111.33 15.2053 110.961 15.2729C110.676 15.4124 110.46 15.5803 110.17 15.7006C110.142 15.7697 109.771 16.0104 109.656 16.3397C109.506 16.6068 109.502 17.006 109.438 17.314C109.396 17.6397 109.463 18.0352 109.605 18.2941C109.718 18.497 109.863 18.745 110.06 18.9728C110.305 19.2592 110.594 19.4039 110.836 19.5321C111.104 19.6522 111.4 19.7232 111.67 19.7052C112.004 19.7064 112.328 19.6592 112.639 19.5436L112.639 19.5456ZM111.711 18.4489C111.393 18.3731 111.141 18.4768 110.975 18.114C110.732 17.8477 110.653 17.4618 110.691 17.356C110.811 17.0509 110.742 16.7474 111.025 16.6188C111.287 16.4135 111.469 16.2365 111.782 16.3341C112.052 16.3651 112.28 16.4178 112.518 16.669C112.702 16.9113 112.818 17.1493 112.802 17.4269C112.78 17.7924 112.665 17.8946 112.468 18.1641C112.322 18.3293 111.963 18.5154 111.711 18.4489Z" fill="#111111"/>
<path d="M115.344 35.1532C115.208 35.243 115.113 35.3829 115.079 35.5425C115.05 35.5746 115.034 35.615 115.031 35.658C115.029 35.7111 115.036 35.7643 115.053 35.8148C115.049 35.9387 115.045 35.9886 115.039 36.1875C115.034 36.2849 115.061 36.3813 115.115 36.4622C115.077 36.541 115.056 36.6283 115.055 36.7163L115.056 37.2447C115.048 37.5076 115.078 37.5086 115.069 37.7724C115.06 38.0363 114.992 38.034 114.985 38.2979C114.98 38.4026 114.987 38.5074 115.004 38.6107C114.955 38.6711 114.928 38.7463 114.929 38.8233C114.92 39.0862 115.086 39.0887 114.952 39.3154C114.912 39.3984 114.855 39.4716 114.783 39.5298C114.696 39.5489 114.614 39.5822 114.54 39.6287L114.06 39.9008C113.953 39.9662 113.841 40.0235 113.724 40.0706C113.665 40.0786 113.607 40.0997 113.557 40.132C113.511 40.1603 113.472 40.1991 113.444 40.2453C113.347 40.3341 113.244 40.4147 113.134 40.487C113.025 40.5594 112.92 40.6379 112.821 40.7237C112.769 40.7368 112.72 40.7585 112.676 40.7878C112.611 40.8259 112.554 40.8772 112.511 40.9384C112.427 41.01 112.339 41.0752 112.246 41.1336C112.164 41.1837 112.087 41.241 112.016 41.305C111.931 41.3291 111.85 41.3662 111.776 41.415C111.681 41.4737 111.611 41.5649 111.578 41.6715C111.543 41.7253 111.526 41.7888 111.533 41.8531L111.592 41.846C111.599 41.9163 111.627 41.9833 111.67 42.0398C111.689 42.1755 111.725 42.3048 111.838 42.3406C112.099 42.4244 112.126 42.3423 112.387 42.4271C112.482 42.4593 112.583 42.4667 112.682 42.447C112.749 42.5083 112.829 42.554 112.917 42.5789C113.178 42.6627 113.19 42.6231 113.452 42.7069C113.553 42.7383 113.646 42.7875 113.73 42.8524C113.785 42.9152 113.857 42.9617 113.938 42.9844C114.199 43.0682 114.19 43.0959 114.451 43.1798C114.706 43.2613 114.747 43.1587 114.992 43.2319L115.008 43.2374C115.269 43.3213 115.352 43.197 115.545 43.3916C115.58 43.42 115.607 43.4565 115.625 43.4979C115.643 43.5392 115.65 43.5842 115.647 43.6291C115.606 43.7248 115.595 43.8315 115.618 43.9333C115.692 44.187 115.653 44.1986 115.726 44.4522C115.8 44.7059 115.922 44.6699 115.996 44.9235C116.069 45.1772 116.117 45.1627 116.19 45.4154C116.264 45.668 116.169 45.6958 116.243 45.9494L116.405 46.4511C116.428 46.5367 116.46 46.6201 116.497 46.7004C116.457 46.7871 116.45 46.8859 116.478 46.9779C116.496 47.0211 116.523 47.0592 116.559 47.0889C116.595 47.1186 116.638 47.1389 116.684 47.1479C116.708 47.1887 116.74 47.2241 116.778 47.2521C116.815 47.2804 116.858 47.3008 116.905 47.3124C116.966 47.3208 117.027 47.3151 117.085 47.2959C117.144 47.2767 117.196 47.2444 117.24 47.2016C117.288 47.1848 117.33 47.1554 117.362 47.1166C117.53 46.9081 117.454 46.8416 117.616 46.6369L117.622 46.6291C117.794 46.4187 117.918 46.52 118.089 46.3096C118.121 46.2712 118.149 46.2295 118.172 46.1853L118.416 45.8773L118.594 45.6451C118.673 45.6108 118.742 45.5571 118.794 45.4888C118.921 45.3319 118.89 45.2408 118.937 45.1173C118.965 45.0702 118.995 45.0252 119.03 44.9834L119.09 44.9064C119.23 44.792 119.353 44.8492 119.499 44.669C119.669 44.4596 119.546 44.3834 119.792 44.2725L120.025 44.1683C120.103 44.233 120.201 44.2703 120.302 44.2767C120.581 44.283 120.58 44.311 120.859 44.3184C120.952 44.3235 121.045 44.2956 121.121 44.2401C121.21 44.2936 121.311 44.3222 121.415 44.323C121.521 44.3266 121.624 44.295 121.709 44.2329C121.787 44.2832 121.878 44.3099 121.971 44.3097C122.105 44.3042 122.236 44.2626 122.35 44.1893L122.529 44.1983C122.585 44.2001 122.641 44.1989 122.697 44.195C122.823 44.2483 122.874 44.346 123.081 44.352C123.358 44.3593 123.36 44.2523 123.637 44.2586C123.725 44.2666 123.813 44.2503 123.893 44.2115C123.972 44.1727 124.039 44.1128 124.086 44.0385C124.095 44.0098 124.098 43.9799 124.094 43.9497C124.089 43.9201 124.078 43.8918 124.062 43.8666C124.077 43.8521 124.09 43.8345 124.099 43.8148C124.107 43.7951 124.11 43.7732 124.109 43.7521C124.103 43.7179 124.083 43.6872 124.054 43.6672C124.089 43.5963 124.139 43.518 124.107 43.4749C123.951 43.2615 123.821 43.3562 123.665 43.1429C123.524 42.951 123.624 42.8463 123.535 42.6732C123.524 42.6512 123.511 42.63 123.497 42.6099C123.492 42.6038 123.487 42.5996 123.482 42.5934C123.336 42.4024 123.246 42.4554 123.095 42.2492C122.94 42.0369 123.003 41.989 122.848 41.7767C122.732 41.6187 122.63 41.6313 122.52 41.5616C122.495 41.5141 122.465 41.4686 122.433 41.4256C122.368 41.3353 122.319 41.2326 122.292 41.1247C122.277 41.0571 122.247 40.9941 122.205 40.9396C122.163 40.8852 122.117 40.8466 122.059 40.8187C121.962 40.7524 121.885 40.7328 121.862 40.5509C121.829 40.2886 122.025 40.3413 122.123 40.0954C122.222 39.8496 122.12 39.8092 122.218 39.5633C122.24 39.507 122.267 39.4529 122.299 39.4009C122.372 39.3087 122.432 39.2066 122.477 39.0977L122.694 38.6168L122.907 38.1416L123.082 37.6352C123.123 37.535 123.15 37.43 123.164 37.3228C123.223 37.2807 123.269 37.2213 123.294 37.153C123.337 37.0444 123.269 36.9391 123.183 36.8422C123.149 36.787 123.109 36.7354 123.065 36.6881C122.945 36.557 122.813 36.4325 122.643 36.4828L122.329 36.5924C122.252 36.5738 122.171 36.5781 122.096 36.6026C121.988 36.6347 121.886 36.6858 121.796 36.7536L121.579 36.8163C121.497 36.8386 121.422 36.8761 121.355 36.9279C121.261 36.9707 121.163 37.0075 121.063 37.0361C120.797 37.1163 120.766 37.0131 120.5 37.0923C120.234 37.1714 120.247 37.2148 119.98 37.2939L119.446 37.4471C119.185 37.5254 119.183 37.7014 118.923 37.6607L118.912 37.6593C118.865 37.6517 118.821 37.6392 118.777 37.6218C118.641 37.5652 118.614 37.4732 118.442 37.3423C118.224 37.1769 118.334 37.0306 118.116 36.8652C118.067 36.8255 118.009 36.7975 117.947 36.7834C117.868 36.6908 117.779 36.6064 117.683 36.5314C117.466 36.3661 117.404 36.449 117.186 36.2836C116.969 36.1182 117.014 36.0587 116.796 35.8933L116.479 35.6625C116.452 35.6146 116.417 35.5724 116.373 35.5399C116.329 35.5074 116.278 35.4847 116.224 35.4749L115.912 35.2553C115.831 35.1955 115.738 35.1554 115.64 35.1371C115.542 35.1193 115.44 35.1255 115.344 35.1532ZM116.85 37.2529C116.906 37.2983 116.971 37.3312 117.041 37.3494C117.135 37.3995 117.224 37.4576 117.308 37.5214C117.38 37.5779 117.458 37.6275 117.54 37.6693C117.59 37.739 117.65 37.799 117.719 37.8494L117.963 38.0457C118.005 38.1046 118.056 38.1563 118.115 38.1989C118.324 38.358 118.36 38.3112 118.57 38.4703C118.616 38.5058 118.669 38.5296 118.725 38.5405C118.809 38.6264 118.897 38.7104 118.992 38.6826C119.246 38.607 119.22 38.5241 119.474 38.4476C119.567 38.4217 119.652 38.3705 119.717 38.3007C119.804 38.3146 119.893 38.3066 119.976 38.2794C120.23 38.2038 120.218 38.1634 120.471 38.0878C120.568 38.0571 120.669 38.0455 120.771 38.0529C120.849 38.0746 120.932 38.0725 121.009 38.0469C121.262 37.9713 121.27 37.9986 121.523 37.9231C121.766 37.8502 121.81 37.5095 121.98 37.6473C121.987 37.6525 121.993 37.6547 122 37.6619C122.178 37.837 121.927 37.9066 121.834 38.1386C121.8 38.2275 121.757 38.3131 121.708 38.3955C121.645 38.4384 121.597 38.4999 121.571 38.572C121.478 38.8041 121.441 38.7888 121.348 39.0208C121.255 39.2528 121.374 39.2988 121.282 39.5299C121.19 39.7609 121.235 39.7795 121.142 40.0115C121.05 40.2435 120.959 40.2064 120.867 40.4375C120.84 40.5136 120.833 40.5954 120.845 40.6749C120.857 40.7543 120.89 40.8305 120.938 40.8941C120.987 40.9631 121.043 41.0275 121.103 41.0868C121.092 41.1786 121.117 41.2712 121.173 41.3452C121.226 41.4201 121.301 41.4756 121.39 41.5036C121.419 41.5816 121.459 41.656 121.509 41.7227C121.579 41.8141 121.66 41.8969 121.75 41.968C121.773 42.0177 121.801 42.0647 121.834 42.1078C121.979 42.3068 122.063 42.2516 122.207 42.4436L122.213 42.4508C122.362 42.6529 122.231 42.7485 122.379 42.9506C122.468 43.0419 122.576 43.1122 122.696 43.1564C122.726 43.1874 122.731 43.2286 122.688 43.3022C122.647 43.3708 122.609 43.3936 122.57 43.3973C122.468 43.3438 122.347 43.2257 122.191 43.2215C121.993 43.2168 121.942 43.2971 121.817 43.335C121.765 43.342 121.711 43.3445 121.658 43.3426L121.562 43.3424C121.389 43.3016 121.36 43.1695 121.132 43.1639L120.603 43.1622C120.504 43.1578 120.405 43.1855 120.321 43.2387C120.246 43.1922 120.161 43.1683 120.073 43.1684C119.809 43.1615 119.81 43.1345 119.545 43.1276C119.469 43.1261 119.412 43.1892 119.36 43.2655C119.312 43.2588 119.263 43.2626 119.216 43.2767C119.169 43.2911 119.126 43.3147 119.089 43.3475C119.025 43.4253 118.99 43.5222 118.991 43.6233C118.908 43.6506 118.834 43.7021 118.781 43.7714C118.663 43.9175 118.694 44.0116 118.659 44.1285L118.55 44.2569C118.516 44.2978 118.485 44.3397 118.456 44.3838C118.341 44.446 118.235 44.4234 118.113 44.5744C117.949 44.777 118.032 44.8438 117.868 45.0464C117.704 45.249 117.669 45.2209 117.504 45.4234C117.404 45.5471 117.403 45.7262 117.358 45.8358C117.308 45.8561 117.253 45.8593 117.2 45.8465C117.172 45.8456 117.146 45.8366 117.121 45.8238C117.097 45.811 117.076 45.7913 117.06 45.7677C117.093 45.6332 117.114 45.4959 117.121 45.3575C117.122 45.3035 117.11 45.2501 117.089 45.2004C117.068 45.1506 117.036 45.1066 116.996 45.0692C116.968 45.0032 116.943 44.9353 116.922 44.8666C116.903 44.7921 116.868 44.7226 116.819 44.663C116.779 44.5766 116.746 44.4875 116.72 44.3956C116.649 44.152 116.752 44.1215 116.681 43.878C116.61 43.6344 116.568 43.646 116.497 43.4015L116.361 42.9117C116.334 42.8437 116.29 42.7842 116.233 42.7373C116.177 42.6904 116.109 42.6591 116.037 42.6447L116.032 42.6425L115.908 42.6063C115.775 42.5708 115.727 42.5732 115.533 42.5096C115.286 42.4303 115.342 42.2561 115.096 42.1778C115.039 42.1582 114.979 42.1524 114.919 42.1609C114.821 42.1015 114.715 42.053 114.606 42.0173C114.361 41.938 114.33 42.037 114.085 41.9578C113.841 41.8785 113.862 41.8072 113.618 41.729C113.442 41.673 113.312 41.7837 113.238 41.7592C113.227 41.7215 113.219 41.6827 113.215 41.6434C113.209 41.6022 113.207 41.5601 113.21 41.5182C113.273 41.4743 113.417 41.5341 113.57 41.4372C113.789 41.2995 113.817 41.3434 114.035 41.2057C114.143 41.1332 114.247 41.0527 114.344 40.9659C114.386 40.9568 114.426 40.9402 114.462 40.9168C114.507 40.8904 114.546 40.8553 114.577 40.8136L114.884 40.6218C114.966 40.5726 115.03 40.4976 115.065 40.4078C115.15 40.3972 115.232 40.3668 115.304 40.3187L115.73 40.0289C115.792 39.9829 115.842 39.9229 115.877 39.8537C115.911 39.7848 115.929 39.7084 115.927 39.6303C115.935 39.3764 116.004 39.3787 116.012 39.1248C116.016 39.0238 116.009 38.9227 115.992 38.823C116.04 38.7656 116.067 38.6934 116.067 38.6184C116.075 38.3645 116.045 38.3635 116.052 38.1106C116.057 38.0137 116.04 37.9171 116.004 37.8268L116.016 37.6031C116.024 37.3502 116.05 37.3511 116.057 37.0972C116.063 36.9203 115.952 36.8315 115.964 36.7609C115.997 36.7347 116.035 36.7137 116.075 36.6986C116.116 36.6802 116.158 36.6656 116.201 36.6548C116.276 36.6883 116.271 36.8302 116.423 36.9454C116.524 37.0198 116.631 37.0875 116.742 37.1462C116.772 37.1885 116.808 37.2256 116.85 37.2559L116.85 37.2529Z" fill="#111111"/>
<path d="M99.3355 24.1334C99.2864 24.048 99.221 23.9731 99.143 23.913C98.9856 23.7914 98.7871 23.7381 98.5899 23.7634C98.3926 23.7887 98.2135 23.8912 98.0919 24.0485L90.7677 33.5411C90.7057 33.6189 90.6597 33.7082 90.6326 33.8039C90.6054 33.8997 90.5976 33.9998 90.6095 34.0986C90.6214 34.1974 90.6529 34.2928 90.702 34.3793C90.7512 34.4658 90.8171 34.5416 90.8958 34.6024C90.9746 34.6632 91.0647 34.7077 91.1608 34.7334C91.2569 34.759 91.3572 34.7653 91.4558 34.7518C91.5544 34.7383 91.6493 34.7053 91.735 34.6548C91.8207 34.6043 91.8955 34.5372 91.955 34.4575L99.2792 24.9649C99.3393 24.8869 99.3835 24.7978 99.4092 24.7027C99.4349 24.6076 99.4416 24.5084 99.4289 24.4107C99.4163 24.3131 99.3845 24.2188 99.3355 24.1334Z" fill="#111111"/>
<path d="M104.074 37.5402C104.136 37.3509 104.119 37.1451 104.029 36.968C103.938 36.7909 103.781 36.657 103.592 36.5958C103.402 36.5345 103.197 36.551 103.019 36.6415L96.5635 39.9412C96.3875 40.0323 96.2548 40.1895 96.1942 40.3782C96.1337 40.567 96.1504 40.772 96.2406 40.9485C96.3308 41.125 96.4873 41.2586 96.6757 41.3202C96.8641 41.3817 97.0693 41.3661 97.2462 41.2768L103.702 37.9772C103.879 37.8866 104.013 37.7294 104.074 37.5402Z" fill="#111111"/>
<path d="M85.4984 20.8201C85.4125 20.7719 85.318 20.741 85.2202 20.7293C85.1223 20.7176 85.0232 20.7252 84.9283 20.7518C84.8335 20.7784 84.7448 20.8235 84.6674 20.8843C84.59 20.9452 84.5253 21.0207 84.477 21.1066C84.4288 21.1925 84.3979 21.287 84.3862 21.3849L83.3829 29.7703C83.3713 29.8682 83.379 29.9674 83.4056 30.0622C83.4323 30.1571 83.4774 30.2458 83.5383 30.3232C83.5993 30.4007 83.6749 30.4654 83.7608 30.5136C83.8467 30.5618 83.9413 30.5927 84.0392 30.6043C84.137 30.616 84.2362 30.6083 84.3311 30.5816C84.426 30.555 84.5147 30.5099 84.5921 30.4489C84.6695 30.388 84.7342 30.3124 84.7825 30.2265C84.8307 30.1405 84.8615 30.0459 84.8732 29.9481L85.8757 21.5632C85.8874 21.4654 85.8798 21.3663 85.8532 21.2714C85.8266 21.1766 85.7815 21.0879 85.7207 21.0105C85.6598 20.933 85.5842 20.8683 85.4984 20.8201Z" fill="#111111"/>
<path d="M34.0387 57.9086C34.0249 58.0061 34.0304 58.1055 34.0549 58.2009C34.0794 58.2964 34.1225 58.385 34.1817 58.4638C34.2409 58.5426 34.315 58.609 34.3998 58.6592C34.4846 58.7093 34.5785 58.7422 34.6761 58.7561C34.7736 58.7699 34.8729 58.7644 34.9684 58.7399L46.5801 55.7548C46.6774 55.7321 46.7692 55.6902 46.8502 55.6316C46.9311 55.5729 46.9995 55.4987 47.0513 55.4133C47.1032 55.3278 47.1374 55.2328 47.152 55.134C47.1666 55.0351 47.1613 54.9343 47.1364 54.8375C47.1115 54.7407 47.0676 54.6499 47.0071 54.5703C46.9466 54.4908 46.8708 54.4241 46.7841 54.3742C46.6975 54.3244 46.6018 54.2924 46.5026 54.28C46.4034 54.2677 46.3028 54.2753 46.2066 54.3024L34.5949 57.2875C34.4994 57.312 34.4098 57.3551 34.331 57.4142C34.2522 57.4734 34.1858 57.5475 34.1356 57.6323C34.0855 57.7171 34.0526 57.811 34.0387 57.9086Z" fill="#111111"/>
<path d="M38.4655 44.8471C38.3063 44.9664 38.201 45.144 38.1728 45.3408C38.1445 45.5377 38.1947 45.7377 38.3139 45.8969C38.4332 46.0561 38.6108 46.1614 38.8076 46.1896L45.984 47.222C46.1806 47.2497 46.3801 47.1983 46.5389 47.0791C46.6976 46.96 46.8027 46.7827 46.831 46.5863C46.8593 46.3898 46.8085 46.1901 46.6899 46.031C46.5712 45.8719 46.3943 45.7663 46.198 45.7373L39.0216 44.705C38.8247 44.6767 38.6247 44.7279 38.4655 44.8471Z" fill="#111111"/>
<path d="M42.0665 68.5244C42.0932 68.6192 42.1384 68.7078 42.1994 68.7851C42.2604 68.8625 42.336 68.9271 42.422 68.9752C42.5079 69.0233 42.6025 69.054 42.7003 69.0655C42.7982 69.0771 42.8973 69.0693 42.9921 69.0425C43.0869 69.0157 43.1755 68.9706 43.2528 68.9096L49.884 63.6801C49.9614 63.6191 50.0259 63.5435 50.074 63.4575C50.1221 63.3716 50.1528 63.277 50.1644 63.1792C50.1759 63.0813 50.1681 62.9822 50.1414 62.8874C50.1146 62.7926 50.0694 62.704 50.0084 62.6267C49.9474 62.5493 49.8718 62.4848 49.7858 62.4367C49.6999 62.3886 49.6053 62.3579 49.5075 62.3463C49.4097 62.3348 49.3105 62.3426 49.2157 62.3693C49.1209 62.3961 49.0324 62.4413 48.955 62.5023L42.3238 67.7317C42.2465 67.7927 42.1819 67.8683 42.1338 67.9543C42.0857 68.0403 42.055 68.1348 42.0434 68.2327C42.0319 68.3305 42.0397 68.4296 42.0665 68.5244Z" fill="#111111"/>
<path d="M26.8074 27.9618C26.7715 28.1544 26.8134 28.3533 26.9239 28.515C26.9279 28.5662 26.9496 28.6144 26.9853 28.6512C27.0288 28.6977 27.0816 28.7355 27.1387 28.7634L27.4491 29.084C27.5293 29.1687 27.6354 29.2263 27.7508 29.2462C27.7868 29.3459 27.8451 29.4361 27.9211 29.5101L28.3797 29.9467C28.6012 30.1723 28.6261 30.1471 28.8476 30.3726C29.0692 30.5982 29.0102 30.6563 29.2318 30.8818C29.3192 30.972 29.4153 31.0533 29.5188 31.1246C29.5307 31.2163 29.5734 31.3013 29.6398 31.3658C29.8603 31.5913 30.0001 31.4499 30.086 31.753C30.1248 31.8566 30.1402 31.9674 30.1311 32.0777C30.0761 32.1679 30.0368 32.2666 30.0143 32.3699L29.8527 33.0099C29.8207 33.1571 29.7767 33.3016 29.7212 33.4417C29.6782 33.4997 29.6493 33.5669 29.6365 33.6379C29.6222 33.701 29.6235 33.7667 29.6401 33.8292C29.636 33.9867 29.6197 34.1438 29.5913 34.2988C29.5629 34.4532 29.5449 34.6094 29.5376 34.7663C29.5067 34.8223 29.4847 34.8826 29.4725 34.9462C29.4525 35.0342 29.4505 35.1253 29.4665 35.2141C29.4593 35.3457 29.4426 35.4765 29.4164 35.6057C29.3921 35.7178 29.3779 35.8318 29.3739 35.9464C29.324 36.04 29.2889 36.1408 29.2698 36.2451C29.2425 36.3759 29.2627 36.5121 29.327 36.6292C29.3436 36.7043 29.386 36.7712 29.4467 36.8184L29.4886 36.7617C29.5562 36.8137 29.6369 36.8458 29.7216 36.8546C29.8535 36.9511 29.996 37.0269 30.1214 36.9591C30.4108 36.8027 30.3618 36.711 30.6522 36.5547C30.7591 36.5002 30.8489 36.4172 30.9134 36.3163C31.0217 36.3089 31.1278 36.2775 31.2227 36.2226C31.5121 36.0662 31.4886 36.0224 31.778 35.8661C31.8884 35.8047 32.0091 35.764 32.1342 35.7459C32.2348 35.7503 32.3345 35.7258 32.4217 35.6755C32.7111 35.5192 32.7271 35.5497 33.0165 35.3933C33.2988 35.2407 33.2438 35.1198 33.5101 34.9687L33.5284 34.9593C33.8168 34.8029 33.7797 34.6275 34.107 34.6225C34.1602 34.6163 34.215 34.6231 34.2654 34.6418C34.3158 34.6605 34.3608 34.6911 34.3975 34.7303C34.4457 34.846 34.5295 34.9439 34.6364 35.0075C34.9176 35.154 34.8952 35.1973 35.1754 35.3438C35.4556 35.4902 35.5262 35.3555 35.8064 35.502C36.0867 35.6485 36.1145 35.5954 36.3938 35.7409C36.673 35.8863 36.6195 35.9916 36.8997 36.1381L37.4678 36.4143C37.5611 36.4644 37.6588 36.5067 37.7597 36.5401C37.8015 36.6473 37.8811 36.7354 37.9835 36.7878C38.0359 36.8086 38.0916 36.8164 38.1469 36.8093C38.2022 36.8021 38.2559 36.7829 38.301 36.7504C38.3561 36.763 38.4132 36.7646 38.4689 36.7551C38.5248 36.7456 38.5783 36.725 38.626 36.6943C38.6835 36.6487 38.7298 36.5906 38.7614 36.5244C38.7929 36.4581 38.8089 36.3855 38.808 36.3122C38.8327 36.2573 38.842 36.1967 38.8349 36.137C38.7945 35.8185 38.6731 35.8284 38.6315 35.5188L38.6299 35.5068C38.5887 35.1842 38.7806 35.1596 38.7404 34.8371C38.7334 34.7778 38.7204 34.7193 38.7012 34.6627L38.6369 34.1963L38.5845 33.8493C38.62 33.7524 38.6304 33.6481 38.6147 33.5461C38.5847 33.306 38.4793 33.2574 38.412 33.1141C38.394 33.0515 38.381 32.9874 38.3734 32.9227L38.3563 32.8061C38.3736 32.5905 38.5246 32.5315 38.4899 32.2542C38.4497 31.9337 38.2811 31.9781 38.3894 31.6725L38.4931 31.3838C38.6142 31.3696 38.7275 31.3169 38.8164 31.2336L39.3137 30.786C39.3953 30.7087 39.4478 30.6064 39.4635 30.4949C39.5837 30.4619 39.6929 30.3975 39.7789 30.3084C39.8684 30.2188 39.9266 30.1029 39.9451 29.9778C40.0532 29.9522 40.1514 29.8957 40.2278 29.8152C40.3349 29.6937 40.4079 29.5461 40.4382 29.387L40.5943 29.2391L40.7303 29.0916C40.8816 29.0257 41.0084 29.0639 41.1844 28.8887C41.4204 28.6545 41.3294 28.5634 41.5654 28.3292C41.6445 28.2596 41.7033 28.1697 41.7352 28.0693C41.7671 27.9688 41.7711 27.8615 41.7466 27.759C41.7296 27.7274 41.7056 27.6996 41.6763 27.6786C41.6469 27.6575 41.6132 27.6434 41.5776 27.6372C41.5785 27.6112 41.5733 27.5861 41.5631 27.5617C41.5529 27.5373 41.5366 27.5168 41.5172 27.5001C41.4819 27.4779 41.4391 27.4695 41.3989 27.4771C41.3658 27.389 41.3394 27.281 41.2757 27.2719C40.9609 27.2293 40.9355 27.4216 40.6217 27.379C40.3398 27.3415 40.3316 27.1682 40.1067 27.1026C40.079 27.0936 40.0502 27.0867 40.0213 27.0827C40.0114 27.0814 40.0043 27.0821 39.9953 27.0818C39.7082 27.0512 39.6801 27.1723 39.3753 27.1311C39.0625 27.0895 39.0747 26.9949 38.762 26.9524C38.5299 26.9216 38.4545 27.0211 38.3042 27.0581C38.2417 27.042 38.1783 27.0298 38.1143 27.0217C37.9814 27.0032 37.8532 26.9598 37.7364 26.8939C37.6657 26.8508 37.5863 26.8238 37.5039 26.8151C37.4276 26.8049 37.35 26.8137 37.2779 26.8405C37.1398 26.8699 37.0591 26.9212 36.8814 26.7892C36.6266 26.5995 36.8359 26.4745 36.7045 26.1859C36.5731 25.8973 36.4543 25.9514 36.3229 25.6628C36.2921 25.5971 36.2676 25.5286 36.2497 25.4582C36.2304 25.3185 36.192 25.1811 36.1353 25.0522L35.8988 24.4659L35.6651 23.8877L35.3721 23.3166C35.3185 23.1985 35.2503 23.0876 35.169 22.9866C35.1819 22.9 35.1682 22.8116 35.1295 22.7331C35.0718 22.6051 34.9236 22.5771 34.7687 22.5719C34.6927 22.5554 34.6152 22.5467 34.5374 22.5461C34.3245 22.541 34.106 22.5527 34.0096 22.7425L33.8443 23.1042C33.7646 23.1557 33.7008 23.2284 33.6602 23.3141C33.5979 23.4344 33.5579 23.5649 33.5422 23.6994L33.4161 23.9393C33.368 24.0276 33.3378 24.1245 33.3274 24.2245C33.2862 24.3423 33.2365 24.457 33.1788 24.5677C33.0268 24.8638 32.9127 24.8049 32.7607 25.102C32.6086 25.399 32.6559 25.4226 32.5038 25.7197L32.1929 26.3086C32.044 26.5998 32.1952 26.7469 31.9446 26.9386L31.9333 26.9472C31.8885 26.9807 31.8403 27.0093 31.7894 27.0325C31.6279 27.1031 31.5256 27.0506 31.2691 27.091C30.9452 27.1422 30.9104 26.9259 30.5855 26.978C30.5103 26.9883 30.4382 27.0153 30.3747 27.057C30.229 27.0481 30.0826 27.0552 29.9378 27.0764C29.6149 27.1276 29.6349 27.2493 29.312 27.3005C28.9891 27.3517 28.975 27.2632 28.6511 27.3143L28.1871 27.3978C28.1241 27.3799 28.0579 27.3763 27.9933 27.3873C27.9289 27.3981 27.867 27.4241 27.8137 27.4623L27.3645 27.5503C27.2464 27.5705 27.1345 27.6177 27.0375 27.6882C26.9406 27.7587 26.8612 27.8506 26.8055 27.9568L26.8074 27.9618ZM29.8724 28.3999C29.9587 28.3886 30.0416 28.359 30.1155 28.313C30.2358 28.274 30.3589 28.2451 30.4846 28.2254C30.5942 28.209 30.7011 28.1836 30.8054 28.1471C30.9065 28.1617 31.0093 28.1597 31.1098 28.1413L31.4816 28.0937C31.5677 28.1065 31.6554 28.1047 31.7409 28.0884C32.0527 28.0389 32.0411 27.9694 32.3529 27.9199C32.4216 27.9097 32.487 27.8835 32.5436 27.8432C32.6867 27.842 32.833 27.8359 32.8866 27.7307C33.0311 27.4484 32.9386 27.4012 33.0832 27.1189C33.138 27.017 33.1637 26.9018 33.1574 26.7862C33.2406 26.722 33.3084 26.6392 33.3536 26.5447C33.4982 26.2624 33.4539 26.2399 33.5974 25.9575C33.6511 25.8483 33.7255 25.7507 33.8162 25.6697C33.9 25.6195 33.9665 25.5457 34.0084 25.458C34.153 25.1757 34.1835 25.1918 34.328 24.9104C34.4662 24.6399 34.2078 24.3191 34.468 24.2858C34.4781 24.2851 34.4852 24.2814 34.4962 24.2817C34.7957 24.2718 34.6474 24.547 34.7713 24.8203C34.8198 24.924 34.859 25.0318 34.8885 25.1424C34.8735 25.2329 34.8874 25.3254 34.9277 25.4068C35.0516 25.6792 35.0069 25.6997 35.1308 25.972C35.2548 26.2443 35.393 26.1809 35.5169 26.4522C35.6409 26.7235 35.6947 26.6993 35.8187 26.9716C35.9426 27.2439 35.8349 27.2923 35.9589 27.5637C36.0029 27.6499 36.0676 27.724 36.147 27.7793C36.2265 27.8347 36.3183 27.8697 36.4145 27.8811C36.515 27.8959 36.6166 27.9016 36.7181 27.8983C36.7885 27.9838 36.8892 28.0388 36.9991 28.0518C37.1078 28.0683 37.2189 28.0485 37.3152 27.9954C37.407 28.0353 37.5042 28.0615 37.6037 28.0731C37.7405 28.0889 37.8788 28.0871 38.0151 28.0679C38.077 28.089 38.1409 28.1036 38.2058 28.1114C38.4986 28.1502 38.5207 28.0309 38.8056 28.0665L38.8166 28.0668C39.1144 28.1068 39.089 28.2981 39.3868 28.3381C39.5399 28.337 39.6908 28.3017 39.8285 28.2349C39.8806 28.2346 39.9207 28.263 39.9473 28.3629C39.9722 28.4548 39.9615 28.5075 39.9313 28.5435C39.8007 28.5871 39.5984 28.5944 39.4659 28.725C39.2972 28.8924 39.3234 29.0044 39.2538 29.1431C39.2159 29.1948 39.1738 29.2433 39.1278 29.288L39.048 29.3703C38.8691 29.4854 38.7308 29.4017 38.5372 29.5943L38.0976 30.0508C38.0113 30.1339 37.9528 30.2417 37.9302 30.3594C37.8283 30.385 37.7364 30.4389 37.6638 30.5145C37.4392 30.7381 37.415 30.7143 37.1904 30.9379C37.1262 31.0018 37.1327 31.105 37.1561 31.2129C37.1099 31.2494 37.0723 31.2951 37.0466 31.3473C37.0202 31.3994 37.0053 31.4566 37.0029 31.5149C37.0167 31.6348 37.0725 31.7458 37.1605 31.8284C37.1146 31.9229 37.0985 32.0291 37.1142 32.133C37.1427 32.3571 37.2501 32.4087 37.3218 32.5352L37.3411 32.736C37.3487 32.7986 37.3596 32.8607 37.3739 32.9222C37.3328 33.0729 37.2243 33.1463 37.2536 33.3774C37.2932 33.6869 37.4198 33.6711 37.4594 33.9806C37.4991 34.2901 37.4458 34.2973 37.4844 34.6078C37.508 34.7977 37.6621 34.947 37.7198 35.076C37.6956 35.1357 37.6533 35.1864 37.5989 35.221C37.5744 35.2437 37.5451 35.2605 37.5132 35.2702C37.4808 35.2801 37.4468 35.2819 37.4139 35.2768C37.3248 35.1364 37.2227 35.0047 37.1089 34.8834C37.0624 34.8384 37.007 34.8035 36.9463 34.7809C36.886 34.7588 36.8213 34.7486 36.7561 34.7525C36.675 34.7233 36.5959 34.6885 36.5195 34.6485C36.4389 34.6037 36.3488 34.5767 36.257 34.5696C36.1492 34.532 36.0447 34.4864 35.9434 34.433C35.674 34.2919 35.7328 34.1778 35.4634 34.0367C35.194 33.8956 35.1684 33.9427 34.898 33.8016L34.3614 33.5124C34.2796 33.48 34.1911 33.4685 34.1038 33.4788C34.0164 33.4891 33.933 33.5211 33.8611 33.5717L33.8551 33.5735L33.7214 33.651C33.5794 33.7373 33.543 33.7801 33.3259 33.8969C33.0538 34.0438 32.9492 33.8512 32.6771 33.9982C32.6129 34.0308 32.5574 34.0783 32.5154 34.1368C32.3821 34.1734 32.2533 34.2241 32.1311 34.289C31.86 34.436 31.9184 34.544 31.6473 34.691C31.3762 34.838 31.3328 34.7595 31.0608 34.9054C30.8672 35.01 30.8543 35.2157 30.7738 35.259C30.7315 35.2377 30.6915 35.2122 30.6543 35.183C30.6172 35.1537 30.5753 35.1203 30.5415 35.0831C30.5556 34.9925 30.7262 34.9172 30.7704 34.7036C30.8326 34.4005 30.8932 34.4126 30.9554 34.1095C30.9818 33.9555 30.9977 33.7999 31.0031 33.6438C31.0301 33.5994 31.049 33.5506 31.059 33.4996C31.0728 33.4389 31.0749 33.3762 31.0652 33.3147L31.1545 32.8895C31.1794 32.7777 31.1668 32.6609 31.1186 32.5571C31.1804 32.4741 31.2227 32.3785 31.2401 32.277L31.3426 31.6681C31.3548 31.5762 31.3448 31.4827 31.3134 31.3955C31.282 31.3083 31.2302 31.2298 31.1623 31.1668C30.9495 30.9495 31.0084 30.8914 30.7946 30.6741C30.7103 30.5871 30.6174 30.5089 30.5173 30.4407C30.5073 30.3513 30.467 30.2689 30.4021 30.2057C30.1893 29.9884 30.1634 30.0146 29.9506 29.7973C29.87 29.7132 29.7722 29.6475 29.6639 29.6046L29.4803 29.4083C29.2675 29.1911 29.2892 29.1698 29.0774 28.9536C28.9294 28.8015 28.7606 28.8238 28.7078 28.755C28.7134 28.7045 28.7262 28.6551 28.7458 28.6082C28.7638 28.5574 28.7862 28.5083 28.8127 28.4614C28.904 28.4244 29.023 28.5465 29.2473 28.511C29.3963 28.485 29.5436 28.4479 29.6873 28.4007C29.7483 28.4108 29.8105 28.4105 29.8714 28.3999L29.8724 28.3999Z" fill="#111111"/>
<path d="M28.1059 74.6107C28.094 74.6366 27.9052 74.7401 28.012 74.6155C27.6884 74.6184 27.4015 74.5714 27.3702 74.0299C27.2667 73.7328 27.6668 73.3159 27.9635 73.3514L29.6656 73.222C30.014 73.1942 30.2686 72.8895 30.2373 72.5473L30.2168 72.37C30.0712 71.5056 30.0863 70.7245 30.2168 70.6325C30.2804 70.3948 30.3753 70.0163 30.8607 70C31.2016 70.1064 31.4001 70.3805 31.5047 70.6325C31.6007 70.7101 31.5101 71.3935 31.5047 72.3767C31.481 72.7611 31.8294 73.0706 32.2177 73.0141C33.0429 72.8952 33.7095 72.7582 33.6631 72.9297C33.7524 72.9244 33.8421 72.9356 33.9263 72.9627C34.0106 72.9897 34.0876 73.032 34.1525 73.0869C34.2173 73.1418 34.2687 73.208 34.3033 73.2814C34.3379 73.3548 34.355 73.4338 34.3534 73.5134C34.2984 74.0165 34.3469 74.1008 33.7602 74.1919L32.0462 74.2877C31.7215 74.3203 31.4766 74.5954 31.4853 74.9164L31.5058 75.5959C31.5478 76.4661 31.5435 77.436 31.5058 77.3334C31.3558 77.6612 31.0873 78.1308 30.8618 77.9659C30.3602 77.6669 30.1618 77.8126 30.2179 77.3334V75.5959L30.206 75.1819C30.2038 74.8254 29.9007 74.5427 29.5394 74.5676L28.1059 74.6107Z" fill="#111111"/>
<path d="M57.5267 77.1663C57.58 77.1113 57.6616 77.1291 57.7462 77.1596L57.7475 77.1601C57.8138 77.1387 57.8851 77.1381 57.9517 77.1585C58.0165 77.172 58.0765 77.2026 58.1254 77.2471C58.1743 77.2917 58.2104 77.3485 58.2299 77.4117L58.2731 77.7135C58.3443 77.7829 58.3921 77.8746 58.4066 77.9745L58.5013 78.5532C58.5519 78.8412 58.3524 78.8787 58.4021 79.1671C58.4196 79.278 58.4679 79.3818 58.5415 79.4666C58.6034 79.5358 58.6433 79.6217 58.6564 79.7136C58.6683 79.8444 58.646 79.976 58.5919 80.0956C58.583 80.1374 58.5836 80.1807 58.5934 80.2222C58.6036 80.2634 58.6225 80.3022 58.649 80.3357C58.7893 80.5389 58.8864 80.4803 59.1089 80.5877C59.3314 80.6952 59.4037 80.5484 59.6261 80.6559C59.7908 80.735 59.7974 80.8315 59.8792 80.9192C59.9274 80.9345 59.9744 80.9534 60.0196 80.9758L60.4526 81.2117C60.6741 81.3196 60.7193 81.2258 60.9418 81.3333L61.133 81.4329C61.2254 81.4485 61.315 81.4777 61.3989 81.5196C61.4664 81.5607 61.5233 81.6172 61.5647 81.6845C61.6066 81.7521 61.6319 81.8287 61.6389 81.908C61.6332 81.9901 61.6094 82.0698 61.5682 82.1414C61.5272 82.2128 61.4711 82.2745 61.404 82.3221C61.3267 82.3629 61.2413 82.386 61.1541 82.3897C61.0762 82.462 60.9876 82.5218 60.8914 82.567C60.8082 82.6093 60.7129 82.6219 60.623 82.6022C60.5461 82.6741 60.4584 82.7336 60.3631 82.7784L59.8438 83.0066C59.5889 83.1312 59.6188 83.1946 59.3648 83.3188C59.1739 83.4121 59.0799 83.3423 58.9754 83.3985L58.8837 83.524C58.841 83.5784 58.8081 83.6399 58.7867 83.7056C58.7899 83.7938 58.8459 83.8682 58.8246 84.0451C58.8171 84.128 58.786 84.2085 58.7341 84.2748L58.6838 84.6014L58.6458 85.073C58.6459 85.1048 58.6439 85.1366 58.64 85.1681C58.6059 85.4494 58.6703 85.4568 58.6372 85.7377L58.5716 86.3013C58.5662 86.352 58.4169 86.3455 58.3467 86.3695L58.3266 86.397C58.2847 86.4561 58.3292 86.6117 58.2595 86.6366C58.2293 86.6454 58.1973 86.6457 58.167 86.6374C58.1367 86.6291 58.1094 86.6121 58.0888 86.588C58.0382 86.5481 57.9912 86.4905 57.9429 86.4432L57.8978 86.401C57.7444 86.2936 57.6182 86.3921 57.457 86.2362C57.2799 86.065 57.3613 85.9782 57.1853 85.8067C57.0092 85.6352 56.9481 85.6976 56.7711 85.5265C56.7247 85.4837 56.6855 85.4348 56.653 85.3811C56.5548 85.3435 56.4651 85.2866 56.3891 85.2138C56.213 85.0423 56.2532 85.0002 56.0761 84.829C56.023 84.7763 55.9756 84.7181 55.9348 84.6554C55.8714 84.611 55.799 84.5813 55.7228 84.5685C55.6161 84.5393 55.5534 84.5204 55.5012 84.5113C55.4208 84.5233 55.3593 84.5633 55.1886 84.5891C55.1065 84.6045 55.0218 84.5994 54.9421 84.5744L54.6088 84.6357L54.3047 84.6972C54.2396 84.7719 54.1497 84.8205 54.0515 84.834C53.7653 84.8785 53.7596 84.8323 53.4734 84.8767L53.1429 84.9316C53.0693 84.9711 52.9891 84.9969 52.9062 85.0078C52.8886 85.0095 52.8704 85.0072 52.8538 85.0009C52.8373 84.9947 52.8224 84.9845 52.8104 84.971C52.6793 84.9668 52.5543 84.9138 52.4621 84.8216C52.4353 84.7639 52.4204 84.7014 52.418 84.6378C52.415 84.5743 52.4255 84.5096 52.4478 84.4499C52.4392 84.434 52.4356 84.4171 52.4348 84.3991C52.434 84.3811 52.4376 84.3634 52.4452 84.3474C52.4879 84.2557 52.5467 84.1716 52.6159 84.0972L52.7391 83.8576C52.8657 83.6026 52.8062 83.5727 52.9329 83.3177L53.1853 82.808C53.243 82.6973 53.326 82.6012 53.4274 82.5289C53.4331 82.4576 53.4534 82.3879 53.4872 82.3246C53.5277 82.2476 53.5896 82.184 53.6655 82.1415C53.7059 82.0485 53.7198 81.9462 53.7057 81.8459C53.6956 81.5512 53.5425 81.6476 53.3992 81.3916C53.3438 81.2962 53.3203 81.1856 53.332 81.0758C53.2373 81.0398 53.1588 80.9708 53.111 80.8814C53.0473 80.7584 53.0017 80.6269 52.9776 80.4899C52.9356 80.4464 52.8999 80.3974 52.8712 80.3442C52.8248 80.2631 52.7831 80.1795 52.7463 80.0937C52.6807 80.0157 52.6231 79.9313 52.5744 79.8418C52.4314 79.5868 52.3971 79.606 52.2542 79.351C52.2257 79.2698 52.2146 79.1837 52.2228 79.0973C52.231 79.0107 52.2579 78.927 52.3016 78.8519C52.3811 78.7389 52.6011 78.7308 52.736 78.7551L53.3157 78.8444C53.3557 78.8515 53.3952 78.8611 53.4341 78.8731C53.6118 78.8832 53.6657 78.827 53.9063 78.8699C54.0078 78.8854 54.1033 78.9276 54.1832 78.9921C54.2764 78.9425 54.3838 78.9265 54.4874 78.9468C54.5977 78.9649 54.7001 79.0155 54.7813 79.0923C54.871 79.069 54.9648 79.0666 55.0556 79.085C55.3427 79.1361 55.3334 79.3588 55.6137 79.2704C55.677 79.2534 55.7361 79.2209 55.7829 79.1739C55.8301 79.1274 55.8642 79.0694 55.882 79.0055C55.9104 78.947 55.9482 78.8935 55.9938 78.8471L56.019 78.824C56.1886 78.6433 56.1582 78.5919 56.3482 78.3976C56.4209 78.3205 56.5078 78.2583 56.6042 78.2143C56.6132 78.1206 56.6549 78.0331 56.7221 77.9671C56.9196 77.7644 56.9945 77.8376 57.1928 77.6345L57.3903 77.4479C57.4023 77.3417 57.4506 77.2423 57.5267 77.1663Z" fill="#111111"/>
<path d="M70.172 20.6508C70.2831 20.9196 69.995 22.9441 69.903 22.914C70.1129 23.1272 69.7589 23.4205 69.391 23.3821C69.1704 23.4557 68.8205 23.2369 68.9105 22.8807C68.9149 22.7808 68.7865 22.4903 68.9588 21.4425C68.7847 20.9964 68.8785 20.9435 68.9808 20.3706C68.9995 20.1992 69.105 19.2322 68.3665 20.249C67.9447 21.0402 67.6601 21.3809 67.514 21.2329C67.4899 21.3862 67.2435 21.3619 66.8137 21.2904C66.8382 21.1562 66.6015 21.0232 66.7546 20.6071C66.4298 20.5361 66.9892 20.1747 67.6071 19.6221C68.4771 18.6828 67.3693 18.4805 67.2122 18.5092C66.6379 18.4499 66.8856 18.5233 66.4175 18.4275C65.9209 18.4379 65.46 18.4864 65.1806 18.4631C64.562 18.4123 63.9221 18.3978 64.0323 18.4245C63.8148 18.5553 63.4227 18.252 63.5518 17.9231C63.4761 17.6754 63.7489 17.2984 64.0648 17.4551C64.1448 17.3967 64.5276 17.4986 65.2132 17.4936C65.6237 17.3673 66.0575 17.678 66.5135 17.5663C66.6586 17.5341 66.6703 17.6646 67.1626 17.6321C67.9707 17.6452 68.0611 17.3341 67.5429 16.9745C67.2192 16.6314 67.0841 16.6339 66.7544 16.2926C66.6204 15.96 66.0828 15.6427 65.931 15.5726C65.6655 15.4066 65.7126 15.2841 65.622 15.3301C65.5738 15.0363 65.3922 14.8741 65.5739 14.6461C65.5158 14.412 66.1307 14.3656 66.2749 14.5996C66.2584 14.7321 66.4439 14.6903 66.6724 14.8601C66.9169 15.1174 67.0781 15.1729 67.4062 15.5621C67.8078 15.9098 67.6851 15.9587 68.1954 16.1969C68.7264 16.7401 69.1354 16.1514 69.1361 16.0114C69.0877 15.5755 69.228 15.8094 69.1712 15.1151C69.2278 14.3535 69.1303 13.7699 69.2195 13.6769C69.0515 13.5552 69.505 13.4273 69.7325 13.2098C70.1075 13.1564 70.0048 13.5632 70.2119 13.7102C70.3219 13.6248 70.2971 15.1979 70.225 15.7348C70.1722 16.2363 70.4664 16.4713 70.8034 15.8232C71.0497 15.5203 71.1273 15.5339 71.3606 15.2886C71.9281 14.6893 72.0296 14.0504 72.2142 14.3037C72.3296 13.9044 72.5452 14.1877 72.9135 14.2471C73.0304 14.2811 72.9637 14.2708 73.0896 14.6343C73.0878 14.6562 73.111 14.652 72.9736 14.9305C72.8295 14.7496 71.9367 16.5767 71.6493 16.8832C71.4351 17.1832 70.9712 17.7089 71.9834 17.6008C72.5557 17.601 73.5103 17.7792 73.9543 17.7871C74.6861 17.8036 75.0948 17.9104 75.1016 17.8256C75.1661 17.8268 75.2298 17.8408 75.2889 17.8667C75.348 17.8926 75.4014 17.9299 75.446 17.9765C75.4906 18.0231 75.5256 18.078 75.549 18.1382C75.5723 18.1983 75.5836 18.2625 75.5821 18.327C75.5792 18.3914 75.5637 18.4547 75.5364 18.5132C75.5091 18.5716 75.4705 18.6241 75.4228 18.6676C75.3751 18.7111 75.3193 18.7447 75.2586 18.7666C75.1979 18.7884 75.1335 18.7981 75.0691 18.795L73.9217 18.7565C73.3084 18.7849 73.1016 18.746 72.6227 18.7349C70.7461 18.4538 72.042 19.2837 72.386 19.7956C72.8842 20.1565 73.023 20.4333 73.2712 20.5507C73.4746 20.7196 73.5175 20.9022 73.5173 20.7581C73.6217 20.8086 73.8497 20.9903 73.6876 21.14C73.6931 21.3043 73.654 21.395 73.5664 21.4421C73.3182 21.7109 73.3577 21.6082 72.8655 21.4886C73.0282 21.5001 72.6368 21.3859 72.5782 21.2218C72.4128 21.0842 71.4766 20.5365 71.0856 20.0831C70.9349 19.8929 69.9843 19.3297 70.172 20.6508Z" fill="#111111"/>
<path d="M96.382 77.97C96.5509 78.1382 96.7794 78.209 96.9976 78.1837C97.1606 78.1648 97.3184 78.0929 97.4425 77.9679C97.7349 77.6744 97.7338 77.1992 97.4404 76.9073C96.8935 76.3622 96.3302 75.9046 95.7666 75.5467C95.4155 75.3255 94.9534 75.4267 94.7307 75.778C94.5087 76.1272 94.6127 76.591 94.9619 76.8129C95.4341 77.1126 95.9119 77.502 96.382 77.97Z" fill="black"/>
<path d="M45.1153 123.967C44.8335 123.666 44.3584 123.646 44.0555 123.929C43.752 124.211 43.7348 124.686 44.0168 124.989C44.9254 125.966 45.9415 126.898 47.037 127.757C47.1988 127.885 47.3968 127.935 47.5864 127.913C47.778 127.891 47.9615 127.795 48.09 127.631C48.3456 127.305 48.289 126.833 47.963 126.578C46.9289 125.766 45.9708 124.888 45.1153 123.967Z" fill="black"/>
<path d="M51.1747 128.743C50.817 128.537 50.3584 128.66 50.1508 129.018C49.9437 129.377 50.0667 129.836 50.426 130.043C51.5955 130.718 52.8294 131.321 54.093 131.836C54.2143 131.885 54.3404 131.9 54.4621 131.886C54.725 131.856 54.9635 131.686 55.0707 131.424C55.2272 131.04 55.0427 130.603 54.6594 130.447C53.4582 129.957 52.2863 129.384 51.1747 128.743Z" fill="black"/>
<path d="M62.1445 133.902C62.4787 133.863 62.7561 133.602 62.8012 133.254C62.8548 132.842 62.5649 132.466 62.1542 132.414C60.8626 132.246 59.5797 131.996 58.3412 131.672C57.9427 131.567 57.5314 131.805 57.4256 132.207C57.3206 132.608 57.5599 133.017 57.9609 133.122C59.2609 133.464 60.6066 133.726 61.961 133.901C62.0235 133.909 62.0849 133.909 62.1445 133.902Z" fill="black"/>
<path d="M44.3206 107.96C44.4385 107.946 44.555 107.904 44.6592 107.832C45.6697 107.136 46.8039 106.629 48.0304 106.324C48.4322 106.225 48.6775 105.818 48.5772 105.415C48.4781 105.014 48.0704 104.771 47.6687 104.868C46.2664 105.216 44.9675 105.799 43.8082 106.598C43.4672 106.832 43.3813 107.299 43.616 107.641C43.7791 107.877 44.0538 107.991 44.3206 107.96Z" fill="black"/>
<path d="M40.0739 114.526C40.1352 114.534 40.1957 114.534 40.2543 114.527C40.5895 114.488 40.8673 114.226 40.9117 113.876C41.0671 112.643 41.4744 111.493 42.122 110.456C42.3418 110.106 42.235 109.643 41.8836 109.423C41.5323 109.204 41.0699 109.311 40.8501 109.662C40.0863 110.883 39.606 112.239 39.4232 113.688C39.3716 114.099 39.6628 114.475 40.0739 114.526Z" fill="black"/>
<path d="M51.7147 106.084C52.9697 106.233 54.1373 106.616 55.1849 107.222C55.3298 107.306 55.4915 107.336 55.6462 107.318C55.8737 107.291 56.0858 107.161 56.2095 106.948C56.4172 106.59 56.2945 106.13 55.9358 105.923C54.7111 105.214 53.3503 104.767 51.8909 104.594C51.4779 104.547 51.1068 104.84 51.0581 105.25C51.0091 105.662 51.303 106.035 51.7147 106.084Z" fill="black"/>
<path d="M42.2216 122.074C42.3288 122.062 42.4348 122.026 42.5319 121.965C42.8835 121.746 42.9901 121.283 42.7709 120.932C42.0471 119.773 41.5175 118.623 41.1956 117.514C41.0791 117.115 40.6592 116.877 40.2662 117.002C39.8686 117.117 39.6396 117.533 39.7545 117.93C40.115 119.174 40.7016 120.45 41.4985 121.726C41.6572 121.98 41.9427 122.106 42.2216 122.074Z" fill="black"/>
<path d="M69.9196 132.471C69.0303 132.568 68.1421 132.618 67.2595 132.645C68.1918 131.894 69.0968 131.118 69.9398 130.319C70.2406 130.034 70.2534 129.56 69.9682 129.259C69.6837 128.958 69.2089 128.947 68.9082 129.231C67.9472 130.142 66.9129 131.032 65.8348 131.874C65.5474 132.098 65.4826 132.486 65.6422 132.8C65.4321 132.931 65.279 133.152 65.2771 133.418C65.2745 133.832 65.6083 134.171 66.0224 134.173C67.3566 134.182 68.7227 134.111 70.0828 133.962L70.0876 133.962C70.497 133.914 70.7918 133.545 70.7468 133.135C70.7015 132.724 70.3313 132.426 69.9196 132.471Z" fill="black"/>
<path d="M96.6061 117.844C95.8388 118.873 94.9942 119.872 94.0964 120.811C93.8097 121.11 93.8205 121.585 94.1201 121.871C94.2881 122.031 94.5112 122.099 94.7246 122.074C94.8925 122.054 95.0547 121.979 95.1801 121.847C96.1209 120.864 97.0053 119.819 97.8093 118.74C98.0568 118.408 97.9885 117.938 97.656 117.69C97.3255 117.443 96.8537 117.511 96.6061 117.844Z" fill="black"/>
<path d="M91.244 123.46C90.2626 124.272 89.2078 125.052 88.1084 125.778C87.7632 126.006 87.6677 126.471 87.8966 126.817C88.0576 127.061 88.3369 127.18 88.6095 127.148C88.722 127.135 88.8335 127.097 88.9358 127.029C90.079 126.274 91.1773 125.461 92.1999 124.615C92.5192 124.351 92.5636 123.878 92.2996 123.56C92.0356 123.241 91.5642 123.195 91.244 123.46Z" fill="black"/>
<path d="M101.408 110.689C101.024 110.53 100.587 110.714 100.429 111.095C99.9334 112.296 99.3611 113.473 98.7288 114.59C98.5249 114.951 98.6516 115.408 99.0115 115.612C99.1557 115.694 99.3143 115.722 99.4666 115.705C99.6966 115.678 99.9113 115.546 100.034 115.329C100.697 114.157 101.296 112.926 101.815 111.668C101.973 111.285 101.791 110.846 101.408 110.689Z" fill="black"/>
<path d="M84.7464 127.764C84.2184 128.042 83.6778 128.314 83.1254 128.578C82.4807 128.886 81.8416 129.173 81.2073 129.442C80.826 129.605 80.6479 130.044 80.8092 130.425C80.9419 130.739 81.2642 130.915 81.5862 130.878C81.6551 130.87 81.7248 130.852 81.7923 130.824C82.4473 130.546 83.1068 130.248 83.7711 129.932C84.343 129.659 84.9023 129.378 85.4469 129.09C85.8137 128.896 85.9528 128.443 85.76 128.077C85.566 127.71 85.1098 127.574 84.7464 127.764Z" fill="black"/>
<path d="M103.373 102.986C102.961 102.924 102.58 103.201 102.515 103.611C102.313 104.898 102.034 106.178 101.692 107.418C101.581 107.817 101.814 108.23 102.213 108.34C102.309 108.367 102.406 108.374 102.5 108.363C102.794 108.329 103.052 108.121 103.136 107.818C103.495 106.525 103.785 105.188 103.997 103.844C104.062 103.435 103.782 103.051 103.373 102.986Z" fill="black"/>
<path d="M103.599 95.0343C103.188 95.0544 102.869 95.4129 102.892 95.8261C102.967 97.1299 102.973 98.4425 102.912 99.7296C102.893 100.144 103.213 100.495 103.626 100.515C103.668 100.517 103.709 100.515 103.749 100.51C104.107 100.469 104.393 100.173 104.411 99.8015C104.475 98.462 104.468 97.0953 104.39 95.7407C104.366 95.3267 104.012 95.011 103.599 95.0343Z" fill="black"/>
<path d="M100.395 84.4462C100.526 84.7648 100.85 84.9454 101.176 84.9076C101.242 84.8999 101.308 84.8834 101.373 84.8568C101.757 84.7002 101.941 84.2624 101.784 83.879C101.242 82.5523 100.63 81.3182 99.9639 80.2113C99.7506 79.8556 99.2833 79.7427 98.9354 79.9551C98.5797 80.1689 98.465 80.6295 98.6793 80.9846C99.3053 82.0254 99.8828 83.1902 100.395 84.4462Z" fill="black"/>
<path d="M101.643 88.1326C101.982 89.3665 102.259 90.6487 102.47 91.9456C102.533 92.3432 102.899 92.6163 103.295 92.5704C103.307 92.5691 103.318 92.5677 103.33 92.5654C103.738 92.4994 104.016 92.1142 103.95 91.705C103.731 90.357 103.442 89.0211 103.089 87.7348C102.98 87.3356 102.571 87.1068 102.167 87.2106C101.768 87.3199 101.533 87.7324 101.643 88.1326Z" fill="black"/>
<path d="M77.5392 130.815C76.2805 131.222 75.0114 131.567 73.7684 131.839C73.3638 131.927 73.1073 132.327 73.196 132.731C73.2789 133.111 73.6362 133.36 74.014 133.317C74.0388 133.314 74.0639 133.31 74.0888 133.304C75.3799 133.022 76.696 132.664 78.0017 132.242C78.3959 132.114 78.6113 131.691 78.4839 131.297C78.3566 130.903 77.9315 130.687 77.5392 130.815Z" fill="black"/>
<path d="M58.8324 111.363C58.9686 111.665 59.283 111.837 59.6022 111.8C59.6453 111.795 59.6885 111.786 59.7313 111.773C60.0914 111.665 60.3164 111.308 60.257 110.936C60.1635 110.35 60.1473 109.745 60.2089 109.136C60.2506 108.724 59.9503 108.356 59.5385 108.314C59.2581 108.287 58.9954 108.416 58.8452 108.634C58.6099 108.526 58.3267 108.542 58.1005 108.702C57.7618 108.94 57.6795 109.408 57.9174 109.747C58.263 110.239 58.5709 110.783 58.8324 111.363Z" fill="black"/>
<path d="M77.9308 108.037C78.0064 108.417 78.0668 108.802 78.1111 109.193C78.2146 110.085 78.2387 111.013 78.1822 111.95C78.1573 112.363 78.4719 112.718 78.8857 112.743C78.9303 112.746 78.9744 112.745 79.018 112.74C79.3721 112.699 79.6569 112.408 79.6791 112.04C79.7412 111.016 79.7147 109.999 79.6013 109.022C79.5523 108.591 79.4852 108.165 79.401 107.744C79.3204 107.338 78.9181 107.073 78.5197 107.155C78.1131 107.236 77.8493 107.631 77.9308 108.037Z" fill="black"/>
<path d="M76.6297 104.363C76.7783 104.645 77.0816 104.793 77.3794 104.758C77.4696 104.748 77.5589 104.721 77.6432 104.676C78.01 104.482 78.1491 104.029 77.9562 103.663C77.2019 102.236 76.2726 101.082 75.1948 100.232C74.8693 99.9764 74.3976 100.029 74.1415 100.356C73.8844 100.682 73.941 101.153 74.2657 101.409C75.1789 102.129 75.9746 103.123 76.6297 104.363Z" fill="black"/>
<path d="M47.716 140.836C46.4295 141.199 45.098 141.527 43.7586 141.811C43.3537 141.897 43.0946 142.295 43.181 142.701C43.2617 143.083 43.6202 143.334 44 143.29C44.0233 143.287 44.0469 143.283 44.0705 143.279C45.4415 142.987 46.8054 142.651 48.1233 142.279C48.5222 142.167 48.7539 141.752 48.6412 141.353C48.529 140.954 48.111 140.719 47.716 140.836Z" fill="black"/>
<path d="M70.8863 100.036C71.3015 100.078 71.6658 99.7768 71.707 99.365C71.7476 98.9523 71.4469 98.5851 71.0347 98.5445C69.6293 98.4047 68.1196 98.628 66.6473 99.195C66.2605 99.3441 66.0681 99.7783 66.2172 100.165C66.3424 100.491 66.671 100.679 67.0027 100.64C67.0643 100.633 67.126 100.618 67.1863 100.595C68.4403 100.113 69.7139 99.9217 70.8863 100.036Z" fill="black"/>
<path d="M75.3744 123.908C75.6028 123.563 75.508 123.097 75.1629 122.868C74.8183 122.639 74.3525 122.734 74.1232 123.08C73.4018 124.17 72.5841 125.253 71.6933 126.299C71.4247 126.614 71.4629 127.088 71.7781 127.356C71.9429 127.497 72.1515 127.553 72.3508 127.53C72.5327 127.509 72.7074 127.422 72.8355 127.271C73.7652 126.18 74.6195 125.048 75.3744 123.908Z" fill="black"/>
<path d="M78.4357 115.33C78.0373 115.218 77.6229 115.451 77.512 115.851C77.167 117.088 76.6935 118.346 76.105 119.587C75.9273 119.961 76.0864 120.409 76.4608 120.586C76.5929 120.648 76.7329 120.669 76.8678 120.653C77.1161 120.625 77.3452 120.472 77.4596 120.23C78.0852 118.911 78.5888 117.573 78.9567 116.253C79.0677 115.854 78.8349 115.441 78.4357 115.33Z" fill="black"/>
<path d="M62.5281 134.229C61.408 134.956 60.2314 135.652 59.0307 136.297C58.6657 136.494 58.5291 136.948 58.7259 137.314C58.8756 137.592 59.1766 137.737 59.4725 137.703C59.5641 137.692 59.6553 137.665 59.7414 137.619C60.9776 136.953 62.1902 136.237 63.3445 135.487C63.6919 135.262 63.7909 134.797 63.5653 134.45C63.3402 134.103 62.876 134.004 62.5281 134.229Z" fill="black"/>
<path d="M63.8969 102.596C64.2106 102.326 64.2451 101.852 63.9742 101.538C63.7035 101.225 63.2305 101.191 62.9163 101.461C61.8016 102.424 60.8361 103.58 60.1243 104.804C59.9161 105.163 60.0377 105.622 60.3956 105.83C60.5411 105.914 60.7033 105.944 60.8586 105.926C61.0851 105.9 61.2972 105.771 61.421 105.558C62.05 104.477 62.9064 103.452 63.8969 102.596Z" fill="black"/>
<path d="M55.3764 138.085C54.1476 138.629 52.876 139.137 51.597 139.595C51.2071 139.734 51.0043 140.164 51.1439 140.554C51.2639 140.889 51.5968 141.085 51.9359 141.046C51.9916 141.04 52.0477 141.027 52.1029 141.007C53.4159 140.537 54.7214 140.015 55.9837 139.456C56.3624 139.288 56.5337 138.845 56.3659 138.467C56.1981 138.088 55.7553 137.915 55.3764 138.085Z" fill="black"/>
<path d="M39.6878 142.538C39.0411 142.632 38.3869 142.718 37.7263 142.795C37.315 142.842 37.02 143.215 37.0677 143.626C37.1154 144.037 37.4879 144.332 37.8992 144.285C38.5743 144.206 39.243 144.119 39.9043 144.023C40.3141 143.962 40.5978 143.581 40.538 143.171C40.4787 142.762 40.0995 142.502 39.6878 142.538Z" fill="black"/>
</svg>
